<?xml version="1.0" standalone="no"?>
<svg viewBox="0 0 200 200" xmlns="http://www.w3.org/2000/svg">
  <path fill="#000000" d="M50.1,-18.5C56.6,3.9,47.9,29,28.4,44.4C8.9,59.8,-21.5,65.6,-39.3,52.9C-57.2,40.2,-62.6,9.1,-53.9,-16.2C-45.3,-41.4,-22.6,-60.7,-0.4,-60.6C21.8,-60.4,43.5,-40.8,50.1,-18.5Z" transform="translate(100 100)" />
</svg>


<svg viewBox="0 0 200 200" xmlns="http://www.w3.org/2000/svg">
  <path fill="#000000" d="M68.6,-19.2C76.8,2.9,63,35.3,42,48.3C21,61.3,-7.2,55,-31.1,38.6C-55,22.2,-74.7,-4.2,-68.8,-23.2C-62.9,-42.2,-31.5,-53.7,-0.6,-53.5C30.2,-53.3,60.5,-41.4,68.6,-19.2Z" transform="translate(100 100)" />
</svg>